<?xml version="1.0" encoding="UTF-8"?>
<svg width="10px" height="6px" viewBox="0 0 10 6" version="1.1" xmlns="http://www.w3.org/2000/svg" xmlns:xlink="http://www.w3.org/1999/xlink">
    <!-- Generator: Sketch 64 (93537) - https://sketch.com -->
    <title>ic_expand copy</title>
    <desc>Created with Sketch.</desc>
    <g id="Page-1" stroke="none" stroke-width="1" fill="none" fill-rule="evenodd" opacity="0.800000012">
        <g id="!Players2-1920x1024-" transform="translate(-89.000000, -881.000000)">
            <g id="ic_expand-copy" transform="translate(87.000000, 878.000000)">
                <g id="ic_expand">
                    <g>
                        <rect id="box" x="0" y="0" width="14" height="13"></rect>
                        <path d="M10.5957031,4.08789062 C10.7324226,3.96093687 10.9010407,3.89746094 11.1015625,3.89746094 C11.3020843,3.89746094 11.4752597,3.96093687 11.6210938,4.08789062 C11.7578132,4.21484438 11.8261719,4.37141834 11.8261719,4.55761719 C11.8261719,4.74381604 11.7578132,4.90038999 11.6210938,5.02734375 L7.50585938,8.77246094 C7.36913994,8.8994147 7.20052184,8.96289062 7,8.96289062 C6.79947816,8.96289062 6.62630281,8.8994147 6.48046875,8.77246094 L2.37890625,5.02734375 C2.24218682,4.90038999 2.17382812,4.74381604 2.17382812,4.55761719 C2.17382812,4.37141834 2.24218682,4.21484438 2.37890625,4.08789062 C2.52474031,3.96093687 2.69791566,3.89746094 2.8984375,3.89746094 C3.09895934,3.89746094 3.26757744,3.96093687 3.40429688,4.08789062 L7,7.14746094 L10.5957031,4.08789062 Z" fill="#FFFFFF" transform="translate(7.000000, 6.430176) rotate(-360.000000) translate(-7.000000, -6.430176) "></path>
                    </g>
                </g>
            </g>
        </g>
    </g>
</svg>