<svg xmlns="http://www.w3.org/2000/svg" width="30" height="28" viewBox="0 0 30 28"><defs><clipPath id="otgba"><path d="M7.88 11.97h19.84v15.935H7.88z"/></clipPath><clipPath id="otgbb"><path d="M23.74 21.86h5.902v5.488H23.74z"/></clipPath><clipPath id="otgbc"><path d="M.5.31h21.832v27.04H.5z"/></clipPath></defs><g><g><g><path fill="#fefefe" d="M10.282 1.52C4.768 3.216.76 8.349.76 14.419c0 2.058.463 4.007 1.287 5.752z"/></g><g><g/><g clip-path="url(#otgba)"><path fill="#fefefe" d="M27.495 16.852h.004l.005-.05c.127-.713.2-1.445.21-2.192l.005-.053-.003-.007c0-.047.003-.092.003-.139 0-.834-.08-1.649-.224-2.441h-13.27l-2.156 4.882h10.747c-1.062 3.746-4.505 6.49-8.59 6.49a8.88 8.88 0 0 1-4.495-1.215L7.88 26.319a13.418 13.418 0 0 0 6.345 1.586c6.619 0 12.12-4.766 13.27-11.053"/></g></g><g><g/><g clip-path="url(#otgbb)"><path fill="#fefefe" d="M27.224 21.86a14.98 14.98 0 0 1-3.484 4.127l.6 1.36h5.302z"/></g></g><g><g/><g clip-path="url(#otgbc)"><path fill="#fefefe" d="M17.031 10.473h5.301L17.936.74l.041.04-.208-.471h-5.358L.5 27.35h5.301l9.32-21.106z"/></g></g></g></g></svg>