<?xml version="1.0" encoding="UTF-8"?>
<svg viewBox="0 0 20 22" version="1.1" xmlns="http://www.w3.org/2000/svg" xmlns:xlink="http://www.w3.org/1999/xlink">
    <!-- Generator: Sketch 64 (93537) - https://sketch.com -->
    <title>ic User</title>
    <desc>Created with Sketch.</desc>
    <g id="N-E-W-" stroke="none" stroke-width="1" fill="none" fill-rule="evenodd">
        <g id="ic-User" transform="translate(1.000000, 0.000000)" fill="#FFFFFF">
            <circle id="Oval" cx="9.5" cy="5.5" r="5.5"></circle>
            <path d="M18.2446436,14.9881866 L19.0011742,19.6817376 C19.1769456,20.7722321 18.4354161,21.7987434 17.3449217,21.9745149 C17.2396829,21.9914778 17.1332564,22 17.0266593,22 L1.97301632,22 C0.868446824,22 -0.0269836768,21.1045695 -0.0269836768,20 C-0.0269836768,19.8934029 -0.0184614914,19.7869764 -0.00149856652,19.6817376 L0.755031946,14.9881866 C1.11329564,12.7655018 2.4938838,10.9285106 4.36984233,9.92603152 C5.30296316,11.3489227 7.2495773,12.3265788 9.4998378,12.3265788 C11.7438748,12.3265788 13.6859428,11.354323 14.6217919,9.93941121 L14.6298333,9.92603152 C16.5057918,10.9285106 17.88638,12.7655018 18.2446436,14.9881866 Z" id="Combined-Shape"></path>
        </g>
    </g>
</svg>
