<svg viewBox="0 0 176 65" xmlns="http://www.w3.org/2000/svg"><defs><linearGradient x1="59.748%" y1="56.421%" x2="2.705%" y2="44.295%" id="a"><stop stop-color="#6AB91C" offset="0%"/><stop stop-color="#97D217" offset="100%"/></linearGradient></defs><path d="M164.37 1c3.314 0 6.314 1.343 8.485 3.515A11.962 11.962 0 01176.37 13h0v37.562c0 3.313-1.343 6.313-3.515 8.485a11.962 11.962 0 01-8.485 3.515h0H8.514c-1.38 0-2.63-.56-3.536-1.465a5 5 0 01-1.173-5.217h0l8.607-24.1L3.805 7.683a4.984 4.984 0 01.19-3.822A5 5 0 018.514 1h0z" transform="translate(-1.856 .536)" fill="url(#a)" stroke="#39900F" stroke-width="2" fill-rule="evenodd"/></svg>