<svg xmlns="http://www.w3.org/2000/svg" viewBox="0 0 17 16.5"><path d="M8.65 5.244c.609 0 1.104-.495 1.104-1.104V1.38C9.754.773 9.258.277 8.65.277c-.608 0-1.104.495-1.104 1.104v2.76c0 .608.496 1.103 1.104 1.103M5.615 8.279c0-.608-.495-1.104-1.104-1.104h-2.76a1.105 1.105 0 00.001 2.208h2.76c.608 0 1.103-.495 1.103-1.104m3.035 3.035c-.608 0-1.104.496-1.104 1.104v2.76a1.105 1.105 0 002.208 0v-2.76c0-.608-.495-1.104-1.104-1.104M4.943 6.133c.208.208.486.323.78.323.295 0 .572-.115.78-.323.21-.209.324-.486.324-.78 0-.295-.115-.573-.323-.78L4.553 2.62a1.095 1.095 0 00-.78-.323c-.296 0-.573.114-.781.323a1.093 1.093 0 00-.324.78c0 .295.115.572.324.78l1.95 1.952zm9.365 6.244l-1.95-1.952a1.104 1.104 0 00-1.884.788c-.002.285.106.57.322.787l1.952 1.95c.208.21.485.324.78.324a1.099 1.099 0 001.103-1.11 1.098 1.098 0 00-.322-.787m-8.586-2.275c-.294 0-.572.115-.78.323l-1.951 1.952a1.092 1.092 0 00-.323.78c0 .295.114.572.323.78.208.209.485.324.78.324.295 0 .572-.115.78-.323l1.952-1.952c.208-.208.323-.485.323-.78 0-.295-.115-.572-.323-.78a1.096 1.096 0 00-.78-.324m9.824-2.913h-2.759c-.608 0-1.104.495-1.104 1.104 0 .608.496 1.103 1.104 1.103h2.76a1.105 1.105 0 000-2.207m-3.972-.719c.295 0 .572-.115.78-.324l1.952-1.95c.43-.431.43-1.131 0-1.562a1.1 1.1 0 00-.78-.323h-.001c-.295 0-.572.115-.78.323l-1.952 1.951a1.106 1.106 0 00.78 1.885" fill-rule="evenodd"/></svg>
