<svg xmlns="http://www.w3.org/2000/svg" viewBox="0 0 21 20"><path d="M13.796 9.965c0 1.98-1.611 3.59-3.591 3.59-1.98 0-3.59-1.61-3.59-3.59 0-1.98 1.61-3.59 3.59-3.59 1.98 0 3.59 1.61 3.59 3.59zm5.933-2.282l-1.537-.334c-.133-.41-.299-.809-.494-1.193l.85-1.324a.598.598 0 00-.08-.746l-2.394-2.394a.598.598 0 00-.746-.08l-1.324.85a8.367 8.367 0 00-1.193-.494L12.477.43a.598.598 0 00-.584-.471H8.507a.598.598 0 00-.584.47l-.334 1.538c-.41.133-.809.299-1.193.494l-1.324-.85a.598.598 0 00-.746.08L1.932 4.086a.598.598 0 00-.08.746l.85 1.324a8.367 8.367 0 00-.494 1.193L.67 7.683a.598.598 0 00-.471.584v3.386c0 .281.196.524.47.584l1.538.334c.133.41.299.809.494 1.193l-.85 1.324a.598.598 0 00.08.746l2.394 2.394c.199.2.51.233.746.08l1.324-.85c.384.195.783.36 1.193.494l.334 1.537c.06.275.303.471.584.471h3.386a.598.598 0 00.584-.47l.334-1.538c.41-.133.809-.299 1.193-.494l1.324.85a.598.598 0 00.746-.08l2.394-2.394a.598.598 0 00.08-.746l-.85-1.324c.195-.384.36-.783.494-1.193l1.537-.334a.598.598 0 00.471-.584V8.267a.598.598 0 00-.47-.584z" opacity=".79"/></svg>