<svg xmlns="http://www.w3.org/2000/svg" viewBox="0 0 12 17"><path fill="#f7f0eb" d="M6.353 4.034h4.373V.67H6.353L5.68 2.352z"/><path fill="#fffbf5" d="M1.98.67h4.373v3.364H1.98z"/><path fill="#fdae02" d="M10.726 3.57H6.353L5.68 5.389l.673 2.69 4.373-3.363z"/><path fill="#fdcb02" d="M1.98 3.57v1.146L6.353 8.08V3.57z"/><path fill="#f7f0eb" d="M10.726 12.59H6.353l-.673-1.82.673-2.691 4.373 3.364z"/><path fill="#fffbf5" d="M1.98 12.59v-1.146L6.353 8.08v4.51z"/><path fill="#fdae02" d="M6.82 12.31v-3.9h-.474l-.336 4.373.336 2.828h4.373V12.31z"/><path fill="#fdcb02" d="M6.353 8.41H5.88v3.9h-3.9v3.3h4.373z"/><path fill="#fff" d="M1.98 12.827h8.746M6.388 12.783V8.41"/><path fill="#9ccefd" d="M11.013 3.737V.947h.884V0h-5.55L6.01.473l.336.473h3.721v2.791c0 .876-.429 1.698-1.147 2.199L6.346 7.73l-.336.342.336.342L8.92 10.21a2.682 2.682 0 011.147 2.198V15.2h-3.72l-.337.274.336.673h5.55V15.2h-.883v-2.79c0-1.185-.58-2.297-1.551-2.975L7.51 8.073l1.95-1.362a3.629 3.629 0 001.552-2.974z"/><path fill="#c4e2fe" d="M2.63 15.2v-2.79c0-.876.428-1.698 1.147-2.199L6.35 8.415v-.684L3.777 5.935A2.682 2.682 0 012.63 3.737V.947h3.72V0H.8v.946h.884v2.791c0 1.185.58 2.297 1.551 2.974l1.952 1.362-1.952 1.362a3.629 3.629 0 00-1.551 2.974V15.2H.8v.947h5.55V15.2z"/></svg>