<svg xmlns="http://www.w3.org/2000/svg" viewBox="0 0 23 23"><g opacity=".9"><path d="M9.39 6.632c0 1.642 3.265 2.501 6.49 2.501 3.226 0 6.492-.859 6.492-2.5 0-3.284-12.982-3.284-12.982 0z" opacity=".9"/><path d="M22.13 9.052a.5.5 0 00-.49-.015c-1.344.705-3.39 1.094-5.76 1.094-2.369 0-4.414-.389-5.76-1.094a.5.5 0 00-.73.443v.15c0 1.642 3.265 2.502 6.49 2.502 3.226 0 6.492-.86 6.492-2.501V9.48a.5.5 0 00-.241-.428zM3.39 16.632c0 1.642 3.265 2.501 6.49 2.501 3.226 0 6.492-.859 6.492-2.5 0-3.284-12.982-3.284-12.982 0z" opacity=".9"/><path d="M16.13 19.052a.502.502 0 00-.49-.015c-1.344.705-3.39 1.094-5.76 1.094-2.369 0-4.414-.389-5.76-1.094a.502.502 0 00-.73.443v.15c0 1.642 3.265 2.501 6.49 2.501 3.226 0 6.492-.859 6.492-2.5v-.151a.5.5 0 00-.241-.428zM6.89 5.133c.675 0 1.35-.038 2.005-.113a.5.5 0 00.286-.133c.756-.713 2.048-1.239 3.736-1.52a.5.5 0 00.388-.326 1.2 1.2 0 00.077-.408C13.382-.651.4-.651.4 2.633c0 1.641 3.265 2.5 6.49 2.5zM6.89 8.132c.414 0 .818-.015 1.208-.04a.5.5 0 00.435-.674 2.21 2.21 0 01-.142-.814.5.5 0 00-.155-.362.48.48 0 00-.368-.137 20.44 20.44 0 01-.977.026c-2.37 0-4.415-.389-5.76-1.094A.5.5 0 00.4 5.48v.15c0 1.642 3.265 2.502 6.49 2.502zM6.89 11.132c.414 0 .818-.015 1.208-.04a.5.5 0 00.435-.674 2.263 2.263 0 01-.144-.814.5.5 0 00-.524-.5c-.325.016-.65.027-.974.027-2.37 0-4.415-.389-5.76-1.094A.5.5 0 00.4 8.48v.15c0 1.642 3.265 2.502 6.49 2.502zM22.124 15.052a.497.497 0 00-.49-.015c-.94.493-2.261.837-3.822.995-.263.027-.451.335-.44.6 0 .253-.04.495-.125.74a.502.502 0 00.526.66c2.875-.311 4.592-1.208 4.592-2.4v-.152a.5.5 0 00-.24-.428zM9.89 13.131l.33.006h.01a.5.5 0 00.206-.955l-.107-.048a4.0535 4.0535 0 01-.21-.097.497.497 0 00-.729.443v.151a.5.5 0 00.5.5zM22.125 12.052a.5.5 0 00-.49-.015c-1.345.705-3.39 1.094-5.76 1.094l-.33-.006c-.2-.018-.442.16-.493.39a.5.5 0 00.28.565c.541.246.983.539 1.313.87a.5.5 0 00.385.144c2.461-.156 5.336-.895 5.336-2.463v-.151a.5.5 0 00-.24-.428zM4.576 13.976a.498.498 0 00.184-.035c.88-.348 1.952-.588 3.188-.713.264-.026.452-.359.44-.624a.5.5 0 00-.523-.5c-.325.016-.65.027-.974.027-2.37 0-4.415-.389-5.76-1.094a.5.5 0 00-.731.443v.15c0 1.106 1.535 1.981 4.106 2.341a.472.472 0 00.07.005z" opacity=".9"/></g></svg>