<svg xmlns="http://www.w3.org/2000/svg" viewBox="0 0 197 78"><g clip-path="url(#clip-F09EA55B-511B-4014-90ED-48ADEE083C64)"><path fill="#f12a36" d="M11.35 6.686c7.203-1.02 15.279.007 15.279 8.105 0 7.276-6.474 10.934-13.886 11.957-.142.02-.28.04-.416.057 0 2.687-.003 5.37-.006 8.055-4.11.57-8.217 1.178-12.321 1.829.01-9.439.013-18.877.023-28.316C3.793 7.78 7.57 7.214 11.35 6.686zm4.42 10.073c.004-1.328-1.043-2.249-3.103-1.965-.109.017-.221.03-.33.047 0 1.587-.003 3.179-.003 4.77.109-.017.218-.03.33-.046 2.113-.287 3.11-1.476 3.106-2.806z"/></g><path fill="#ffa002" d="M29.307 4.441c4.123-.455 8.246-.868 12.373-1.241l-.01 18.26c3.107-.281 6.21-.535 9.316-.77-.003 3.351-.003 6.699-.003 10.05a620.637 620.637 0 00-21.693 2.013c.007-9.438.013-18.873.017-28.312z"/><path fill="#ffe003" d="M76.027 1.04c3.833 9.303 7.665 18.64 11.498 28.015a606.84 606.84 0 00-13.42.37l-1.04-3.675a605.04 605.04 0 00-6.912.314l-1.17 3.777c-4.106.218-8.216.475-12.323.772 3.833-9.716 7.666-19.395 11.499-29.038 3.955-.215 7.913-.393 11.868-.535zm-6.289 11.988c-.03.003-.06.003-.086.006a4740.11 4740.11 0 01-1.338 5.803c.917-.046 1.841-.086 2.759-.126-.447-1.895-.891-3.787-1.335-5.683z"/><path fill="#cbdc00" d="M92.133 17.028A3420.072 3420.072 0 0081.05.884c4.665-.125 9.333-.2 14-.224 1.14 2.146 2.279 4.295 3.418 6.447h.082c1.153-2.152 2.308-4.298 3.463-6.44 4.513.03 9.03.105 13.546.23a3720.506 3720.506 0 00-11.004 15.784V29c-4.14-.043-8.283-.047-12.422-.004z"/><path fill="#00aadf" d="M117.2.95c4.137.125 8.273.294 12.413.502.003 9.438.003 18.873.007 28.312a623.12 623.12 0 00-12.417-.502c0-9.438-.003-18.877-.003-28.312z"/><path fill="#ffe003" d="M133.28 1.65c3.764.211 7.52.456 11.277.736 2.955 4.246 5.91 8.514 8.864 12.806a.9006.9006 0 01.08-.033c0-4.018-.004-8.029-.004-12.047 3.711.33 7.422.694 11.132 1.09l.014 28.312c-3.75-.4-7.501-.766-11.258-1.1a3585.657 3585.657 0 00-8.86-12.805.916.916 0 01-.087.033c.004 4.018.004 8.032.007 12.046a600.599 600.599 0 00-11.158-.726c0-9.438-.007-18.877-.007-28.312z"/><path fill="#05bcb4" d="M167.56 18.911c0-8.517 7.425-14.034 17.89-12.564 3.975.557 7.61 2.01 9.967 3.515 0 3.236.003 6.468.006 9.7-2.397-1.357-6.114-2.853-8.89-3.249-4.384-.62-6.659 1.436-6.662 4.483-.004 3.325 2.776 5.682 5.8 6.111.575.083.994.063 1.241.02v-1.446c-.993-.145-1.987-.284-2.977-.42-.004-2.112-.004-4.225-.007-6.334 4.084.564 8.164 1.168 12.238 1.812.007 4.668.007 9.333.01 14-2.182.945-6.065 1.632-10.994.942-10.805-1.509-17.619-8.422-17.622-16.57z"/><path fill="#cbdc00" d="M43.253 48.874c3.754-.33 7.51-.624 11.27-.888a2696.5 2696.5 0 018.865 11.532c.026-.017.056-.03.086-.046V47.428c3.72-.204 7.444-.376 11.165-.518 0 9.438-.003 18.877-.003 28.312-3.767.139-7.527.317-11.294.525-2.958-3.862-5.91-7.705-8.864-11.528-.027.013-.056.03-.083.046l-.003 12.043c-3.72.261-7.438.552-11.152.878.003-9.438.01-18.873.013-28.312z"/><path fill="#fea4c6" d="M111.35 60.764c0 8.22-7.385 14.4-16.847 14.457-9.471.053-16.843-6.045-16.843-14.262 0-8.207 7.375-14.856 16.843-14.909 9.465-.056 16.844 6.507 16.847 14.714zm-12.179.056c-.003-2.423-2.076-4.384-4.668-4.367-2.581.013-4.668 1.997-4.671 4.424-.003 2.423 2.086 4.347 4.671 4.334 2.582-.016 4.668-1.964 4.668-4.39z"/><path fill="#e81a9d" d="M110.91 46.6c4.417.09 8.834.228 13.252.413 1 4.42 2.003 8.844 3.004 13.271.03 0 .053.003.082.003.845-4.34 1.69-8.679 2.539-13.017 2.79.142 5.58.3 8.369.482.835 4.43 1.67 8.868 2.502 13.301.03.004.053.004.083.007 1.01-4.312 2.02-8.617 3.034-12.925 3.994.29 7.986.62 11.977.99a21265.14 21265.14 0 00-8.844 27.557c-3.648-.284-7.3-.535-10.95-.756l-2.586-11.179c-.026-.003-.056-.003-.082-.006-.845 3.628-1.69 7.26-2.539 10.89-3.668-.19-7.336-.35-11-.478-2.948-9.537-5.893-19.055-8.841-28.553z"/></svg>