<svg viewBox="0 0 187 55" xmlns="http://www.w3.org/2000/svg" xmlns:xlink="http://www.w3.org/1999/xlink"><defs><path id="a" d="M0 .12h20.576v20.273H.001z"/></defs><g fill="none" fill-rule="evenodd"><path d="M8.485 9.888c1.407 0 2.069-.745 2.069-1.682 0-.938-.69-1.683-2.069-1.683h-.22v3.365h.22zM.045.676h7.557c4.8 0 10.178 1.379 10.178 7.088 0 5.13-4.303 7.199-9.24 7.199h-.276v5.682H.045V.675z" fill="#FF9700"/><path fill="#DB00BC" d="M19.545.676h8.22v12.88h6.178v7.089H19.545z"/><path d="M47.237 13.005l-.882-4.055H46.3l-.883 4.055h1.82zM42.66.675h7.86l7.613 19.97h-8.881l-.69-2.62h-4.578l-.773 2.62h-8.164L42.66.675z" fill="#0CF400"/><path fill="#00E1FF" d="M61.166 12.205L53.83.675h9.267l2.262 4.552h.055l2.29-4.551h8.963l-7.281 11.28v8.689h-8.22z"/><path d="M95.782 13.005l-.883-4.055h-.055l-.883 4.055h1.82zM91.203.675h7.86l7.613 19.97h-8.881l-.69-2.62h-4.578l-.772 2.62H83.59L91.203.675z" fill="#FFA31D"/><path fill="#0CF400" d="M116.33.676h14.784V7.35h-6.565v1.13h5.24v5.02h-5.24v7.144h-8.219z"/><path d="M142.092 9.502c1.296 0 1.875-.69 1.875-1.545s-.607-1.517-1.875-1.517h-.607v3.062h.607zM133.266.676h8.191c4.11 0 9.709 1.02 9.709 6.344 0 2.15-1.02 3.695-2.51 4.744l4.55 8.88h-8.632l-2.979-6.564h-.11v6.565h-8.22V.675z" fill="#FF9700"/><path fill="#F9FF15" d="M154.062.676h14.37V7.35h-6.15v1.075h4.964v4.744h-4.965V14.3h6.537v6.344h-14.756z"/><path fill="#DB00BC" d="M170.86.676h14.37V7.35h-6.151v1.075h4.965v4.744h-4.965V14.3h6.537v6.344H170.86z"/><path d="M50.864 42.6c1.297 0 1.876-.69 1.876-1.544 0-.855-.607-1.517-1.876-1.517h-.607V42.6h.607zm-8.826-8.826h8.192c4.11 0 9.709 1.02 9.709 6.344 0 2.151-1.02 3.696-2.51 4.744l4.55 8.881h-8.632l-2.98-6.564h-.11v6.564h-8.219V33.774z" fill="#00E1FF"/><path d="M72.544 46.986c1.71 0 3.09-1.38 3.09-3.09s-1.38-3.089-3.09-3.089-3.09 1.38-3.09 3.09 1.38 3.089 3.09 3.089m0-13.515c6.26 0 11.143 4.496 11.143 10.288s-4.882 10.288-11.143 10.288c-6.261 0-11.143-4.496-11.143-10.288S66.283 33.47 72.544 33.47" fill="#F9FF15"/><g transform="translate(85.645 33.654)"><mask id="b" fill="#fff"><use xlink:href="#a"/></mask><path d="M0 11.015V.12h8.22v10.343c0 1.876.607 3.2 2.51 3.2 1.82 0 2.455-1.158 2.455-3.172V.121h7.391v10.784c0 3.061-.772 4.992-1.82 6.26-1.82 2.207-5.13 3.228-8.523 3.228-3.502 0-6.592-1.103-8.357-3.172C.883 16.063.001 14.27.001 11.015" fill="#DB00BC" mask="url(#b)"/></g><path fill="#0CF400" d="M108.621 33.774h7.475l5.875 8.523.055-.028v-8.495h7.391v19.97h-7.474l-5.875-8.524-.055.028v8.495h-7.392z"/><path d="M140.064 47.234h.193c1.38 0 2.427-.441 3.09-1.131.551-.58.91-1.379.91-2.344 0-.993-.359-1.82-.91-2.4-.58-.607-1.518-1.075-3.035-1.075h-.248v6.95zm-8.219 6.51v-19.97h8.357c3.862 0 6.84 1.186 8.854 3.117 1.765 1.682 2.896 3.972 2.896 6.868 0 2.758-1.048 5.13-2.841 6.84-2.069 1.986-5.075 3.144-8.854 3.144h-8.412z" fill="#FF9700"/></g></svg>