<svg viewBox="0 0 234 48" xmlns="http://www.w3.org/2000/svg" xmlns:xlink="http://www.w3.org/1999/xlink"><defs><path id="a" d="M.1424.092h34.659v41.4687H.1424z"/></defs><g fill="none" fill-rule="evenodd"><path d="M7.1291 30.4885c5.7733 3.1122 10.578 4.0216 12.5066 3.8548 1.3407-.1164 1.4228-.8192 1.192-1.4966-.2696-.7895-.7913-1.0937-1.4363-1.2118-1.7614-.3723-6.5122-.5893-11.2887-3.9195-2.4654-1.7465-4.7056-4.2671-6.2414-8.1986-3.2302-8.1337.126-14.2535 9.221-15.036 4.35-.3748 9.9125.5162 13.7121 2.1986l4.029 13.4107c-5.2012-2.3285-9.7117-2.9415-11.459-2.794-1.3739.1157-1.5404.7693-1.328 1.3897.2894.846.922 1.14 1.561 1.318 1.575.3871 6.5108.6758 10.7656 3.5942 2.96 2.0889 4.893 4.8975 5.973 8.5771 2.2586 7.8775-.9262 13.7024-8.9956 14.392-3.889.3316-8.9893-.4783-12.8706-2.2584L7.129 30.4885M49.0273 1.8053c4.0575-.226 8.4681.5914 10.9754 1.854.943 5.0711 1.886 10.142 2.8288 15.2132-2.597-1.3152-5.8077-2.3635-8.9667-2.1926-4.82.2621-6.7421 3.2089-5.8192 7.0134.9232 3.8076 4.0543 6.3785 8.6352 6.1296 3.0162-.1637 5.8024-1.4512 7.7842-3.1531.8977 4.843 1.7951 9.6864 2.6927 14.5297-1.7729 1.5187-5.2689 2.8409-8.9468 3.0459-10.2282.5666-20.3664-7.8112-23.9882-19.9841-3.6048-12.1058 2.5081-21.7727 14.8046-22.456m37.1256 24.7401a926.7895 926.7895 0 00-2.4278-8.3563l-.0934.0028a859.578 859.578 0 00-.4752 8.4417 1134.13 1134.13 0 012.9964-.0882M75.121 1.2625C79.81 1.1 84.4995.9635 89.189.8535c5.8193 13.6891 11.0483 27.4166 15.6867 41.1732-4.61.058-9.2199.1454-13.8294.262a783.805 783.805 0 00-1.6363-5.4015 1115.56 1115.56 0 00-7.2683.2144 637.7968 637.7968 0 00-.4998 5.4651c-4.2368.1435-8.473.3117-12.7087.5046 1.4718-13.9341 3.5342-27.8736 6.1878-41.8088" fill="#F9FF15"/><g transform="translate(98.2293 .4157)"><mask id="b" fill="#fff"><use xlink:href="#a"/></mask><path d="M10.5712 14.2101c-3.1774.026-6.3548.0649-9.5322.1162C.7403 9.6361.4413 4.946.1424.2558a1256.3675 1256.3675 0 0134.659-.0817l-.6348 14.0742c-3.1774-.0364-6.355-.0602-9.5324-.0712-.126 9.1178-.2516 18.2355-.3773 27.3534-4.2667-.015-8.5333-.0047-12.7998.0302l-.8859-27.3506z" fill="#F9FF15" mask="url(#b)"/></g><path d="M145.1353 14.8772c-3.177-.07-6.3544-.1275-9.5317-.1722l.783-14.0722c11.5526.163 23.104.4852 34.6522.967l-2.3143 14.0294c-3.176-.1325-6.3523-.2522-9.5288-.3597l-3.6409 27.2926c-4.2654-.144-8.5312-.263-12.7973-.357.7927-9.1093 1.5852-18.2187 2.3778-27.328m29.7521-13.111c8.5701.384 17.1384.8553 25.7038 1.4149-1.187 4.5775-2.374 9.155-3.5612 13.7326a1198.794 1198.794 0 00-10.5218-.6408l-.4968 2.2176c2.8107.1587 5.6208.3275 8.431.5063-.8219 3.2549-1.6437 6.5098-2.4658 9.7648-2.7184-.173-5.4373-.3362-8.1566-.4898l-.5221 2.3315c3.5513.2007 7.1025.4178 10.653.6516l-3.413 13.0499a1094.8352 1094.8352 0 00-22.9618-1.2704l7.3113-41.2682m39.9553 20.9644c2.1803.1777 3.6296-1.1492 4.2192-2.899.5893-1.7488.0009-3.1921-2.1846-3.3704l-1.0438-.0847c-.6708 2.0906-1.3419 4.1808-2.0127 6.2713.3407.0276.6812.055 1.022.0828m-9.9122-19.2587c4.8821.3357 9.7634.7 14.6434 1.0929 7.3738.581 16.643 3.599 12.4613 14.4485-1.6624 4.3857-4.5728 7.3699-7.813 9.2856a375.8502 375.8502 0 01.4914 18.7939 1096.4 1096.4 0 00-13.4165-1.2229 420.4137 420.4137 0 00-.3068-13.8293c-.06-.0047-.1199-.0097-.18-.0144l-4.3157 13.4462c-4.2598-.343-8.5207-.661-12.7824-.954l11.2183-41.0465" fill="#F9FF15"/></g></svg>