<svg xmlns="http://www.w3.org/2000/svg" viewBox="0 0 22 18"><g opacity=".9"><path d="M11.853 17.81l.002-.001V2.585C11.603 2.455 8.87.276 4.868.065L4.2.03v15.228l.604.03c4.353.207 6.531 2.258 7.049 2.521zM15.033 13.272V5.837l5.595 3.717zM13.13 2.312v15.231a22.56 22.56 0 014.061-.339c2.664.02 4.349.505 4.863.588V2.575c-.209-.023-2.108-.58-4.863-.614a21.108 21.108 0 00-4.061.35z" opacity=".9"/><path d="M16.3 8.21v2.705l2.028-1.353zM8.44 17.316c-.945-.375-2.183-.695-3.69-.767l-1.812-.087V2.2c-1.46.217-2.24.451-2.538.518v15.266l.788-.198a20.616 20.616 0 017.252-.47z" opacity=".9"/></g></svg>