<svg xmlns="http://www.w3.org/2000/svg" viewBox="0 0 17 16"><path fill="#FFF" d="M9.608-.025a.55.55 0 00-.583.066L3.664 4.33H1.102C.495 4.33 0 4.824 0 5.432V9.84c0 .608.495 1.102 1.102 1.102h2.562l5.36 4.289a.557.557 0 00.584.065.55.55 0 00.312-.496V.47a.553.553 0 00-.312-.496zM12.708 3.739a.552.552 0 00-.775.784 4.337 4.337 0 011.292 3.113c0 1.185-.458 2.29-1.292 3.113a.551.551 0 00.775.782 5.42 5.42 0 001.62-3.895 5.43 5.43 0 00-1.62-3.897z"/><path fill="#FFF" d="M14.27 2.18a.552.552 0 00-.778.783 6.525 6.525 0 011.944 4.667c0 1.768-.69 3.425-1.944 4.667a.554.554 0 00-.003.78.554.554 0 00.78.003 7.613 7.613 0 002.269-5.45c0-2.064-.805-4-2.268-5.45z"/></svg>